/* XPM */
static char *_13bc524b7dc40dadf8f10b11dd83effadNH6uE7fCY0wSgX[] = {
/* columns rows colors chars-per-pixel */
"50 50 160 2 ",
"   c #010201",
".  c #0A0000",
"X  c #010903",
"o  c #07000A",
"O  c #017301",
"+  c #037C03",
"@  c #097C02",
"#  c #0C7D0E",
"$  c #047C0E",
"%  c #097E13",
"&  c #487C4B",
"*  c #727F6D",
"=  c #6F7F7E",
"-  c #757474",
";  c #7C7774",
":  c #7D7B74",
">  c #75727A",
",  c #7B757C",
"<  c #727F78",
"1  c #7C7D7B",
"2  c #837C7D",
"3  c #038404",
"4  c #0A8303",
"5  c #008A01",
"6  c #0A8900",
"7  c #018208",
"8  c #018A08",
"9  c #0C870B",
"0  c #14880D",
"q  c #0B8111",
"w  c #058612",
"e  c #02B400",
"r  c #03BE02",
"t  c #08B900",
"y  c #07B909",
"u  c #07BF11",
"i  c #3A8536",
"p  c #3A893C",
"a  c #3ABA31",
"s  c #44833C",
"d  c #02C301",
"f  c #0AC20A",
"g  c #03F602",
"h  c #0DF700",
"j  c #01FE02",
"k  c #09FC04",
"l  c #03FD0B",
"z  c #0AFD0B",
"x  c #07F30B",
"c  c #10FE08",
"v  c #09FA14",
"b  c #3CC130",
"n  c #3C8141",
"m  c #3F8549",
"M  c #3D9042",
"N  c #438443",
"B  c #48834D",
"V  c #7A816F",
"C  c #6E8370",
"Z  c #748376",
"A  c #718876",
"S  c #7C8976",
"D  c #7C817C",
"F  c #7C887A",
"G  c #3CFF41",
"H  c #3BFC49",
"J  c #45C24B",
"K  c #44C342",
"L  c #46FC43",
"P  c #4EF84F",
"I  c #6FFF6E",
"U  c #7DEF76",
"Y  c #6DFF70",
"T  c #77F577",
"R  c #74FF74",
"E  c #79FF76",
"W  c #7BFF7B",
"Q  c #A4922F",
"!  c #A79734",
"~  c #AE9C39",
"^  c #AC9A37",
"/  c #B19C3B",
"(  c #B2A13E",
")  c #B5A542",
"_  c #BAA744",
"`  c #B6A844",
"'  c #BBAA46",
"]  c #BDAC4B",
"[  c #BFB14D",
"{  c #BFAF50",
"}  c #82847D",
"|  c #818376",
" . c #C1AE4C",
".. c #C2B14D",
"X. c #C5B351",
"o. c #C9B654",
"O. c #C7B854",
"+. c #CAB956",
"@. c #C7B758",
"#. c #CCBB5A",
"$. c #D1BD5B",
"%. c #CFBF60",
"&. c #82FF7C",
"*. c #CFC05C",
"=. c #D2C15F",
"-. c #D5C462",
";. c #D8C866",
":. c #DCCC6A",
">. c #E0CE6B",
",. c #787580",
"<. c #7E7F81",
"1. c #737280",
"2. c #837E83",
"3. c #897D87",
"4. c #857C8B",
"5. c #8B7E89",
"6. c #837785",
"7. c #817C94",
"8. c #8C7F90",
"9. c #768383",
"0. c #7D8182",
"q. c #76FF80",
"w. c #7CFF85",
"e. c #7DF383",
"r. c #848383",
"t. c #8B8182",
"y. c #878A84",
"u. c #86848A",
"i. c #80888B",
"p. c #8D8C87",
"a. c #9DB09D",
"s. c #B5B4B4",
"d. c #B8B3B7",
"f. c #BABAB3",
"g. c #B4B6B9",
"h. c #BBB3B9",
"j. c #B5BCBA",
"k. c #BCBBBD",
"l. c #C1B9B6",
"z. c #8FF587",
"x. c #84FD84",
"c. c #89FE86",
"v. c #85FD8C",
"b. c #8DFC8C",
"n. c #B5C2B1",
"m. c #B5F8AB",
"M. c #B4FDB8",
"N. c #BDBEC3",
"B. c #B7C1C2",
"V. c #C3F8C0",
"C. c #D0F1D6",
"Z. c #E9FEEA",
"A. c #E3FFEC",
"S. c #F5FFEA",
"D. c #ECFFF0",
"F. c #F4FCF5",
"G. c #FDFEF5",
"H. c #F7FCF9",
"J. c #FDFDFE",
"K. c #F6F4F9",
/* pixels */
" .)  .o.$.$.$.$.$._ ^ /  . . .(  . . . .....[ ' ' [ X.O.X.X.X.O.X.O.O.O.O.O.O.O.[ ) ` [ =.$.o.......",
" .)  .$.$.$.$.$.$.( ^ / _  . . . . . . .X...' ' ' [ [ O.' ' ' ' O.O.O.O.O.O.O.O.] ) ) [ o.o.......o.",
" ._  .$.$.$.o.$.$. ./ /  .(  . . . . ...X.[ ] ' ' [ [ X.[ [ [ O.X.O.X.O.O.O.O.O.] ' ' [  . .....X.X.",
".._  .$.$.$.$.$.o. ./ /  . . . . . .....X.X.' ' ' [ X.X.*.*.#.#.+.+.+.O.O.O.O.O.[ ) ' ] (  ...X.o.o.",
"o.$.o.$.$.$.$.$.+... ._ [ ............X...] ' ` ` { { { -.*.#.@.+.X.[ ]  . . . ...' '  .( (  .o.o.o.",
"o.o.o.o.o.$.$.$.o..._ ) ' ....[  ... ...[ ' ` ` ` ` ] { *.#.#.@.#.+.X.X.X.X.X. ...) _ ' _ _  .o.o.+.",
"o. .o. .o.o.o.o...] ' ( ) ' ` `  . ._ ] ' ` ` ' ` ] ] { #.#.*.*.;.-.$.$.#.#.$.$. .' ' '  . . .+.o.$.",
" . . . . . . . .] ] ' ( ) ) ` ` ( ( ( l.; D - d.{ ` ` ` { #.*.-.>.:.;.%.%.%.%.$. .' ' '  .....+.$.o.",
" . . . ..... . . ._ _ ( ` ` ` ` ) ` ) F       7.` ` ` ` %.#.%.#.>.:.%.%.$.$.o.$._  . . . . .o.o.o.o.",
"o.o.o.o.o... ._ _  .' ..[ ` ` ` ) d.Z S 5.B 5 i > g.] ' #.#.#.#.;.%.%.%.#.#.$.@. . . . ._  .o.o.....",
"o.$.$.$.o.o. ._ ` [ [ ' ` ] ' ' ` 4.o 3.J.W k 4   F ] ] @.@.@.@.@.$.%.%.@.$.o.o.o.o.o.o. . . . .....",
"$.$.$.$.o... ._ ' ' [ [ ` ] ' d.> p.: B.J.U l f O M C N.X.{ X...o.@.%.%.$.@.@.$.o.$.o.o. ._  .o.....",
"$.$.$.o. ._ _ _ ' ' [ [ ` ` ' r.o } G.Z.F.z.j j k #   1 ] { { { o.o. ._  . .o. .o. .o.o.o. . . ... .",
"o.o. . ._ _ ( ( ` ' ` [ ] n.D F Z f.J.J.J.c.j x j t O & <.h.{ X.o.{ { {  . . . . .o.o.o.o. . .o.....",
"o. . ._ / / / / ` ` [ ' ` y.  y.J.J.J.K.Z.W k k g j g 0   7.{ X.o.o. . . . . . . .o.o. . .o. . .....",
"o. ._ _ / _ / _ ( [ [ j.< F Z a.R m.J.V.x.J O d z e + 3 5 s - g.o.o. . . . . . .o.o.o. .o.o.o.o.....",
"/ / ) / ( ( ) ( ) ] [ |   5.S.v.j q.J.T j w   + j +   $ j +   1 $.@.X. . . . . .@.@.@.o.@.o.@.@.o.o.",
") ) ( ) ) ( ) ) ' [ ..}   5.J.M.x.W c.G j d 7 5 4 3 + r j q   D $.@.@.X. . . . .o.{ o.o.o.o.$.@.#.#.",
"' ' _ _ ) ) ) ( ' [ { D X 4.J.Z.G.&.v j k j g 3   5 g j j @   9.@.@. .{ ] {  .{  .{ { { @.@.@.@.o.+.",
" . .' ] ) ( ) ) ' [ X.r.  u.J.J.J.w.j g g j l 5 o 3 g g j 6   = @.X. .] ] { { _  ._  . .$.@.$.$.+.#.",
"] ] ] ] ) ) ) ` ` ] ..2 . F J.J.F.&.l k j g g 7   3 j g l 3 . 0.X. .{ ]  . .o.o.{ _ _ { $.@.$.@.#.$.",
"] ] ] ] ) ` ` { ] [ ..2   y.H.F.J.&.j j k l j 3   7 j g z 5 o ;  .{ ] ]  . .o.$.{ _ _  .o.@.o.$.o.o.",
"{ ] { ] ` ` [ X.O...[ 1   r.J.F.J.w.j j j g j 5   7 j g g 3   } ]  . . . .X.o.+. ._ _ { { o.o. .X.X.",
"] ] { ] ` [ X.X.@...] 9.o t.J.K.G.w.k k j j j 7   5 j g j 9   Z ] ]  . . .X.o.+. ._  . . . . . ... .",
"{ { { { ` { X.@.*.X.' r.  t.J.D.J.&.g k k g j 3   3 j g j 3   D  . . . .......o...' _ ..' ..' .. ...",
"{ { { { @.%.%.-.-.@.[ 1   r.J.F.J.&.j j l g k 5   3 j g j 3   D  . . . . . ... ...' ' ' ' ' ' .. . .",
"{ { X.@.%.%.;.:.-.@.' 1   u.J.H.J.&.j z j g j 7   4 j g j 4   D  . ..... . . . .' ' ..' ..' ' '  . .",
"{ @.@.@.%.%.%.;.-.@.' 0.  u.J.H.J.&.j j j j j 3   3 j g j 3   D ..' ..' _ _ _ _ _ ....' ' _ ' ' _ _ ",
"{ @.@.@.%.%.{  .{ ....0.  2.J.H.K.&.z l j k j 5   3 j g j 9   1 =.$...' _ $.$.$.$.o...' ( _ ' ' (  .",
" .@.@.%.%.@.@. .{ ] ] 2.o } J.F.J.E j z k j j %   3 j g j 3   0.=.$.o...' $.$.>.o.o.....( _ ' .... .",
"@.@.@.%.%.@.@.{ ' ] ' }   r.H.Z.J.W j k j l l @   3 j g j 3   1 =.$.....' o.$.$.o......._ _ '  .....",
"@.%.@.%.%.%.@. .) ` ` 1   r.D.C.I b.W L j j l 5   3 j g j 3   D ;.$...' ^ ' ....$.....' ( ( '  .....",
"@.@.@.%.-.*.` ) ~ ~ ~ D   t.J.R h v.J.Y j z j @   5 j g l 3   Z >.-.o._ ) _  . . . ...' ( (  . . . .",
"@.@.@.#.*.*.` ` ( ( ( } o m v.P j H W x.c.b 5 & u.i @ y j 3   2.-.=.o.' ( _  . . . . .( ( ......X. .",
"#.#.@.#.@.*.' [ ] { ] C   3 l g j l g e.J.F   2.J.1 . 3 j @   6.o.+...' ) _  ... . ._  ...o. ... . .",
"#.#.@.#.O.#.] ..{ { @.g.: & + d g h k L b.J O K c.a O + 5 n - j....... .) '  ... ._ _  .=.o. ...X.X.",
"#.#.O.+.O.O.X...] [ ..X...}   3 l j j j j j j g g j v q X D o. .X. ... ..........._ ( ..o.o..... .X.",
"+.@.@.O.O.....[ [ [ ' ] [ n., M @ t j j c j k l j f O n ,.l...' '  . . ...X.......( _ ....o...o.o.X.",
"+.O.X.X.[ ..[ ..X.' ` ~ ' ' ' 1 X 7 v j l j k g g q   F ] X. .) / (  ...o.X.X....._ _ ....o.....X.X.",
"@.O...[ [ [ [ [ X.' ~ ! ' ` ` f., s + d k j k d + p , f._  .] ( Q ^  .X.X... .X. ._ ( ......X.X.X.X.",
"] ] ] ' ) ` ] { X.X.[ [ ' ( ( ' ..A o 5 l j g 3   t./  ._ _ _  .(  .o.o.X... .(  ._ ' .... . ... . .",
"( ~ ) ( ) ` ' ] X.X.O.X.' ( ( ' O.n., s + 9 8 B , s. ..._ _ _ _  .o.X.+.....' /  .] _  . . . . . ._ ",
"^ ^ ^ ^ ) ) ] ] ..X.X.[ ` ( ( ' X...X.}   X X 0.$... ... ./ _ _ X.o.o.X.X. .( /  . . . .]  ._  ._  .",
"~ ) ( ~ ) ` ] { X.[ ..O.] ( ( ' ..X...B.> 0.> g.o._ /  .(  ._  .o.o.+.o... .( ( _  ._ ] _ _ ]  . . .",
") ) ) ) ) ) ` { [ [ X.X.[ O.[ X.( ] ..F.J.G.J.G.+._ ^ / X...X...o.o.$.o.+..._ _ ( ' _ _ ( '  ...o.X.",
"` ` ) ) ^ ( ) ` ' [ [ O.O.[ X.[ [ [ ..X.O.o.o....._ ( / ..X.X.X.o...o.$.+.O...( ' _ _ ( ( _  .X.o.o.",
"` ` ` ` ) ` ' ' [ [ X.O.O.[ O.[ ..X.O.#.+.o. .( (  .) ( ..X.....o.o...o......._ _ ' _ _ _  ...+.o.o.",
"{ { { { [ { @.#.] ] X.O.O.X.X.X...X.#.$.#.X. ./ / _  .( ....o.o...o.o... ..... ._ ] _  . ...+.+...X.",
"{ { { { { @.@.@.@.@.@.O.X.X...O.+.#.#.+.$.o./ ( (  ._ _ ....o.$.;.$.o... ...o.o... ._ ..$.o... . . .",
"{ { ] { @.@.{ @.@.@.X.X.X.X.X.O.+.+.+.$.o.o.( ( ( _ _ _ ......=.;.=.o. .....o.o... . ...o.o... ... ."
};
