/* XPM */
static char *_ec89be0b06e4af3def1cb04e9f67de9yl3YYOQgrE60nIQL[] = {
/* columns rows colors chars-per-pixel */
"50 50 239 2 ",
"   c #A4922F",
".  c #A79734",
"X  c #AC9A37",
"o  c #AC9939",
"O  c #AD9B38",
"+  c #AF9A38",
"@  c #AB9C38",
"#  c #AE9C39",
"$  c #AD9C3B",
"%  c #AF9D3B",
"&  c #AE9E3B",
"*  c #AF9F3C",
"=  c #B19C3B",
"-  c #B09E3C",
";  c #B0A03D",
":  c #B2A03D",
">  c #B1A13E",
",  c #B0A03F",
"<  c #B3A13E",
"1  c #B2A33F",
"2  c #B4A03E",
"3  c #B5A33E",
"4  c #B4A23F",
"5  c #B1A140",
"6  c #B3A040",
"7  c #B2A241",
"8  c #B5A340",
"9  c #B4A342",
"0  c #B5A342",
"q  c #B7A242",
"w  c #B3A642",
"e  c #B4A440",
"r  c #B6A540",
"t  c #B5A542",
"y  c #B6A442",
"u  c #B7A543",
"i  c #B4A743",
"p  c #B6A643",
"a  c #B5A544",
"s  c #B6A444",
"d  c #B7A545",
"f  c #B7A744",
"g  c #B6A645",
"h  c #B7A746",
"j  c #B9A543",
"k  c #B9A742",
"l  c #B8A344",
"z  c #B9A445",
"x  c #B9A744",
"c  c #BAA644",
"v  c #BBA745",
"b  c #B9A646",
"n  c #BAA747",
"m  c #BDA647",
"M  c #B5A844",
"N  c #B7A945",
"B  c #BAA843",
"V  c #B8A845",
"C  c #BBA944",
"Z  c #BAA845",
"A  c #B8A847",
"S  c #BBA946",
"D  c #B8AA46",
"F  c #B9AA46",
"G  c #BBAB47",
"H  c #BCAA45",
"J  c #BDA846",
"K  c #BCAA47",
"L  c #B9AC47",
"P  c #BDAC47",
"I  c #BEAD46",
"U  c #B9A948",
"Y  c #B8A849",
"T  c #BBA848",
"R  c #BBAA49",
"E  c #BBAA4B",
"W  c #BDA848",
"Q  c #BEA949",
"!  c #BCAA49",
"~  c #BDAB49",
"^  c #BFAA49",
"/  c #BDAB4B",
"(  c #BFAA4B",
")  c #BAAD49",
"_  c #B9AE49",
"`  c #BBAE4A",
"'  c #BAAF4A",
"]  c #BCAC49",
"[  c #BEAD48",
"{  c #BDAD4A",
"}  c #BCAC4B",
"|  c #BEAC4A",
" . c #BCAF4B",
".. c #BEAE4B",
"X. c #BCAB4D",
"o. c #BDAD4C",
"O. c #BEAC4C",
"+. c #BFAF4C",
"@. c #BEAE4D",
"#. c #BDAC4E",
"$. c #BFAF4E",
"%. c #BEAE4F",
"&. c #BEB04C",
"*. c #BFB14D",
"=. c #BFAF50",
"-. c #C1AF48",
";. c #C0AE49",
":. c #C0AC4A",
">. c #C0AD4B",
",. c #C1AD4B",
"<. c #C1AF4A",
"1. c #C0AB4C",
"2. c #C2AA4C",
"3. c #C0AD4D",
"4. c #C1AF4C",
"5. c #C2AE4C",
"6. c #C1AE4E",
"7. c #C2AF4F",
"8. c #C4AF4D",
"9. c #C5AE4F",
"0. c #C2B04B",
"q. c #C0B14D",
"w. c #C3B14C",
"e. c #C2B04D",
"r. c #C0B04F",
"t. c #C3B14E",
"y. c #C2B24E",
"u. c #C5B04E",
"i. c #C5B44F",
"p. c #C0B051",
"a. c #C2B150",
"s. c #C3B150",
"d. c #C3B350",
"f. c #C2B152",
"g. c #C3B352",
"h. c #C6B150",
"j. c #C4B250",
"k. c #C5B351",
"l. c #C7B251",
"z. c #C6B152",
"x. c #C4B252",
"c. c #C5B353",
"v. c #C1B450",
"b. c #C4B451",
"n. c #C7B550",
"m. c #C5B552",
"M. c #C4B453",
"N. c #C7B452",
"B. c #C6B653",
"V. c #C3B254",
"C. c #C5B554",
"Z. c #C7B454",
"A. c #C6B655",
"S. c #C5B556",
"D. c #C7B756",
"F. c #C6B657",
"G. c #C8B452",
"H. c #C9B553",
"J. c #C9B752",
"K. c #C8B653",
"L. c #CAB254",
"P. c #C9B455",
"I. c #C8B555",
"U. c #C9B754",
"Y. c #CBB654",
"T. c #C9B656",
"R. c #CBB656",
"E. c #CCB755",
"W. c #C7B854",
"Q. c #C8B955",
"!. c #CAB855",
"~. c #C8B857",
"^. c #CAB857",
"/. c #CBB957",
"(. c #CABA57",
"). c #CDB857",
"_. c #CCBB56",
"`. c #C7B758",
"'. c #C8B859",
"]. c #CBB959",
"[. c #CBBB58",
"{. c #CABA59",
"}. c #CAB95B",
"|. c #CBBB5A",
" X c #CEB958",
".X c #CCBA58",
"XX c #CEBB59",
"oX c #CFBB59",
"OX c #CCBA5A",
"+X c #CEBB5B",
"@X c #CCBC59",
"#X c #CDBD5A",
"$X c #CCBC5B",
"%X c #CEBF5B",
"&X c #CBBA5C",
"*X c #CCBB5D",
"=X c #CDBD5C",
"-X c #CFBC5C",
";X c #CEBE5D",
":X c #CDBD5E",
">X c #CFBF5E",
",X c #CEBE5F",
"<X c #D0BC5A",
"1X c #D2BD5B",
"2X c #D0BE5B",
"3X c #D1BF5C",
"4X c #D3BE5C",
"5X c #D1BF5E",
"6X c #D3BE5E",
"7X c #CFBF60",
"8X c #CFC05C",
"9X c #D2C05E",
"0X c #D3C15F",
"qX c #D2C25F",
"wX c #D1C160",
"eX c #D3C360",
"rX c #D2C261",
"tX c #D1C062",
"yX c #D3C362",
"uX c #D6C162",
"iX c #D5C262",
"pX c #D7C263",
"aX c #D4C461",
"sX c #D6C461",
"dX c #D4C463",
"fX c #D7C562",
"gX c #D6C763",
"hX c #D3C264",
"jX c #D6C665",
"kX c #D8C464",
"lX c #DBC667",
"zX c #D8C864",
"xX c #D8C867",
"cX c #DBCB68",
"vX c #DACA69",
"bX c #DBCB6A",
"nX c #DFCF6B",
"mX c #DFCF6D",
"MX c #E0CE6B",
/* pixels */
":.j :.<X<X<X<X<X<Xc + = ~ ~ | | 5.| 5.e.u.e.| L L | m.m.e.d.d.m.m.B.B.W.W.W.W.W.*.N e e.9X XC.e.e.m.",
":.j :.<X<X<X<X<X<Xc + = ~ ~ | | | 5.e.u.m.v.&.N L +.v.m.| ` | R W.W.W.W.W.W.W.W.&.j f *.!.Y.m.u.m.e.",
":.j :.<X<X<X<X<X<Xc = - ~ ~ :.| +.| e.e.v.e.| N K +.v.m.v.e.y.v.v.m.B.W.W.W.W.W.+.N N +.5.e.e.m.h.m.",
"u.j u.<X4X<X4X<X).:.+ 2 ~ :.5.| 5.e.e.e.v.e.` S P | e.m.oX@X@XoX@XQ.W.!.W.W.W.W.+.c N | e S 5.m.C.U.",
"Y.<X).oX<X<X4X4X Xu.:.c +.e.d.d.d.h.m.h.*.` S f R } =.d.dX8X@XS.W.m.*.| &.e.*.*.5.S S ~ > 2 | Y.Y.Y.",
"Y.Y.H.).). X<X<XY.5.c e K 5.5.e.| e.5.5.| S f N N Y E +.8X:X}.@X@X@Xm.v.e.m.v.y.+.S S S S S | !.E.E.",
"u.u.h.h.h.H.H.H.e.| j w e R L S L ` S ` ` S N N Y Y R E '.:X:X8XzXeX8X@X@X[.@X[.5.S S ~ ~ 5.e.!.E.E.",
":.:.5.:.u.u.e.e.:.~ N e f e e M e e e e N e S *.R N N R v.}.8XdXnXcXgXeXqX9XqXqX+.S S S | e.m.Y.E.E.",
"w.:.8.u.h.h.| K | ` S N N i i i e f e f Y R E R Y N f R :X:X:X:XmXvXwXwX{. X{. X| | | | | e.m.!.H.U.",
"H.G.H.H.H.h.| K L | L ` L L N N f f S N Y } } R R R R R {.{.@XoXjXdXwXwX X{.oX!.e.e.e.5.| 5.u.C.m.h.",
"<X<X X).).h.| S L ` ` L L L L N M N N ` ` ` R f +.=.+.=.C.C.C.W.{.:XwXwX@X{.!.!.!.H.m.m.| | e.h.u.e.",
"<X4X<X<XH.e.` R L ` _ &.L L S N Y N N | E R Y R V.d.V.v.S.d.V.v.d.!.:XwX!.oXoX{.!.!.H.!.e.| e.h.q.q.",
" XoX!.m.e.| N e N ` ` ` L L L L L S | *.+.~ Y m Y X.X.X.X.=.=.p.C.C.+.X.e.e.e.e.h.H.H.h.G.8.8.u.:.e.",
").!.h.| K e 1 1 i ` ` &._ L L L L P ` | 2.~ m Y X.X.X.X.+.=.=.f.C.v.=.+.e.e.e.e.h.h.H.h.G.9.9.u.e.u.",
"!.m.:.S 8 2 > > w L ` &.` ` L ` K L | *.2.+.~ Y Y X.X.X.=.=.=.f.C.S.+.} 5.*.e.e.h.G.H.h.G.G.5.h.e.e.",
"m.:.S e - 2 ; > w L &.&._ R ` R P S ` e.X.X.~ m E Y =.E E =.=.V.C.C.=.+.e.:.e.5.h.h.H.h.G.m.h.9.i.e.",
"- > 2 > 8 2 e 1 N | *.e.@XoXoXoXe.Y.d.X.+.m ~ R X. X:X{.C.S.v.C.4X'.h.5.5.+.p.5.'.Y.'.'.Y.V. X X!.!.",
"j 8 e 8 e e e 1 S *.v.e.!.!.!.Y.+.p.+.l 2.m Y m m C.}.C.C.Y.C.`.*X}.C.V.X.3.2.5.h.V.V.Y.'.Y.}.{.!.!.",
"K S S c j e e e N *.v.v.v.h.m.m.p.Y.V.~ :.m Y R f d.C.d.p.d.d.V.Y.Y.d.5.X.+.p.5.5.2.5.p. X'.{. X!.!.",
"~ ~ ~ | 8 8 1 7 N +.v.m.e.e.e.e.<XhX4XP.m ~ m m 6 X.V.+.+.=.+.m.V.V.5.2.2.5.X.X.X.:.X.~ {. X'.{.!.{.",
"| E +.} 7 8 f Y N | v.!.e.e.e.e.kXlX6XV.L.9.X.m Y R R ` X.R *.d.V.5.X.X.X.p.Y.'.p.c Y 5.'.].{.*XoXoX",
"+.+.E +.7 a R =.| *.e.v.m.e.e.e.6XhX4XV.2.m z z c c Y S 5.S.C.V.5.5.+.X.5.9.V.{.p.c c d.P.'.!.{.!.!.",
"=.} +.} f Y d.v.m.e.e.| C.h.e.e.2.~ R l z l z f c Y Y Y C.@X{.C.X.X.+.2.5.d.'. X5.S c 5.h.d.h.h.h.m.",
"+.} =.+.Y =.d.C.W.v.| N m.m.e.e.X.m c l z z z l c Y R R :X:X{.C.X.+.2.X.p.h.C. X5.S S +.5.5.5.+.e.e.",
"=.=.=.=.Y E V.`.:XS.| *.y.v.e.e.Y c f l 8 z ~ X.+.X.+.+.}.wX:X*.=.2.+.5.9.p.m.h.:.K I P P P P :.e.e.",
"=.=.=.V.`.7XwXjXjXW.` | +.e.+.+.z l Y f f c X.p.}. X@X{.}.wX}.+.5.5.X.p.p.5.e.5.:.P P P P P P -.~ +.",
"=.=.V.S.7XhXxXbXjXC.R ~ S L S S Y f f Y Y +.d.C.wX7X:X7X@XwX:X*.5.X.5.X.2.~ ~ ~ | P -.P P P C P | P ",
"=.V.`.`.}.7XdXjXdXC.S ` N S N N R Y Y c X.=.C.{.{.@X@X@X{.wX}.+.5.X.5.X.R Y K c P P -.P P C C K S B ",
"V.V.'.}.}.}.S.d.d.p.d.+.| L S ` R =.S.C.@Xv.+.S Y Y Y R {.W.{.'.pX Xd.~ f Y.9X<X_.U.q.-.3 B P P P -.",
"V.`.`.}.:X}.m.p.} +.+.| | | | R E +.C.W.:X=.Y Y f f f f '.'.'.W.pX:Xd.X.+.oXfXfX_.n.q.-.3 B P -.:.q.",
"C.'.'.7X:X{.C.d.R R L | ` | ` R E +.V.W.{.C.E R Y Y Y f '.!.'.W.pXoX9.X.f '.9X<X_.n.-.:.3 B K -.q.-.",
"`.'.{.7X:X*XV.p.f N e e ` | +.R +.d.C.C.C.C.S.+.R N N R {.{.:X{.hX4XV.~ o Y n.u._.w.q.-.2 3 -.w.-.q.",
"}.'.'.8XjX:Xf 7 & & & & e e f e W.W.W.W.v.m.d.d.| S f N !.@X@X8XmXfXm.S 8 c +.5.~ 5.q.P - e | e.e.e.",
":XY.C.:X7X8Xf f > 7 > w e f f S *.*.*.e.e.v.m.v.*.` S e W.oX@X@XfX9Xh.S 8 S +.5.~ +.I B B K :.e.e.h.",
":X{.W.:X{.:XR +.R ` | | | R R ` S S N f S | *.e.e.*.| N v.m.m.!.H.!.e.| e c e.e.5.| | :.u.m.e.e.e.e.",
"{.{.W.:XC.{.} d.d.d.d.m.v.d.m.m.> > & ; ; w N ~ *.e.| ` e.v.m.v.e.m.e.| e S e.e.+.c B | 9X!.u.q.d.d.",
"!.@XW.@XW.W.v.y.+.+.e.d.m.e.m.v.7 > > > > S ` | 5.e.| S 5.oXH.| m.e.e.5.e.v.e.e.5.c e +.m.m.h.h.d.h.",
"@X!.!.C.v.v.e.*.+.| ` ` | *.*.5.e e e f e e ` *.e.R c e q.!.h.K S ~ :.e.h.h.e.h.5.e l e.h.m.m.m.h.m.",
"!.W.W.v.e.*.*.e.e.| e ; L | S L S N S f N ` +.| ~ S > - S m.:.e & 2 | d.m.h.d.v.e.N c e.d.h.d.h.m.h.",
"W.W.e.*.*.e.+.*.e.` & . S e N S ` | ` ` S ~ } *.j e - X S 5.| >   O :.H.m.e.e.h.+.c S e.e.5.d.d.d.u.",
"| ` | | w S | +.v.m.m.| S > > S e.m.d.e.e.m.!.oXm.S e S c c K c 2 5.d.m.m.u.K j ~ ~ ~ :.e.e.| e.5.e.",
"; ; ; > 2 e ` +.e.m.v.m.` > ; S m.v.d.e.e.m.!.oX<Xe.| h.~ c c c 5.m.!.Y.h.u.e - :.~ ~ :.:.5.5.| :.X.",
"@ @ @ @ e N R +.v.v.h.e.S > ; ` m.y.v.y.u.h.!.oX4Xe.:.u.c c K c m.!.Y.W.m.| > O 5.+.:.| | | | | ~ ~ ",
"> > > > e f ` +.m.e.v.m.L > > L y.m.e.e.v.H.!.oXm.S l ~ c c c c !.!.!.Y.d.~ 8 e S ~ ~ ~ S | | | +.~ ",
"7 7 7 7 7 f R E | e.v.Y.m.m.e.v.N L e.m.H.U.).oX).j X - d.h.d.d.h.Y. X).!.e.S e e N c f e S | e.V.Y.",
"f f a f $ , a Y ` *.m.m.m.e.v.e.| | v.m.!.!.m.h.5.j > - d.h.d.h.h.G.E. X!.B.| S c c c 8 2 S :.m.P.C.",
"R R R R 5 a R R | | m.m.m.m.m.e.e.v.W.@X!.H.:.C c c j > e.m.u.m.H.m.h.Y.h.h.:.S c S S S S | e.!.V.Y.",
"+.=.} +.+.d.C.{.` *.m.m.m.m.v.m.v.B.@XoX Xm.K = - K | 2 e.h.m.m.G.Y.h.u.q.e.e.| K R K ~ +.e.!.).h.p.",
"=.=.=.=.S.S.`.S.`.C.C.m.H.m.h.m. X@X!.oX Xm.2 > > K K S e.u.m.<XfX0X!.| e.m.m.!.v.~ K d.{.Y.d.5.=.2.",
"=.=.E =.S.S.C.C.W.'.W.C.m.h.m.H.{.!.@X X!.H.2 - 2 K S j e.e.i.9XfX0XY.5.e.e.Y.!.h.S K u.'.C.h.5.5.p."
};
