/* XPM */
static char *de7b76a436c74ec08fa6012db2efc151MVc23hNDjttYwLbE[] = {
/* columns rows colors chars-per-pixel */
"50 50 242 2 ",
"   c #1A1309",
".  c #021415",
"X  c #140E0E",
"o  c #24190E",
"O  c #1A230F",
"+  c #302A13",
"@  c #1B1325",
"#  c #170823",
"$  c #231A2C",
"%  c #291D34",
"&  c #301F31",
"*  c #12312C",
"=  c #262627",
"-  c #372D27",
";  c #373627",
":  c #2C2335",
">  c #34273B",
",  c #363A33",
"<  c #283529",
"1  c #453C29",
"2  c #473B32",
"3  c #4E3430",
"4  c #4E390A",
"5  c #344831",
"6  c #244E2E",
"7  c #544C14",
"8  c #6B5D0E",
"9  c #766D18",
"0  c #4A4437",
"q  c #55483B",
"w  c #57543A",
"e  c #4C4C2E",
"r  c #63583B",
"t  c #706935",
"y  c #5E6A3C",
"u  c #382B43",
"i  c #383347",
"p  c #2A1E44",
"a  c #45384F",
"s  c #4A3A61",
"d  c #34504C",
"f  c #3B7054",
"g  c #33766F",
"h  c #1D5953",
"j  c #4C4A47",
"k  c #544945",
"l  c #4A5546",
"z  c #595646",
"x  c #554759",
"c  c #5B5955",
"v  c #4A4957",
"b  c #65584A",
"n  c #675B55",
"m  c #6B544E",
"M  c #576645",
"N  c #476852",
"B  c #5B6757",
"V  c #587058",
"C  c #666748",
"Z  c #666758",
"A  c #75685B",
"S  c #727656",
"D  c #5C5265",
"F  c #67596F",
"G  c #487A76",
"H  c #54716B",
"J  c #6A6965",
"K  c #766A64",
"L  c #6A7665",
"P  c #7A796B",
"I  c #7B7978",
"U  c #696A77",
"Y  c #827214",
"T  c #816F27",
"R  c #83794F",
"E  c #827866",
"W  c #847D77",
"Q  c #917F7B",
"!  c #3A8777",
"~  c #798D5A",
"^  c #598371",
"/  c #7B8A6A",
"(  c #708875",
")  c #AD9B37",
"_  c #AE9E3B",
"`  c #B19D3C",
"'  c #B29F29",
"]  c #B3A23E",
"[  c #AFA534",
"{  c #998F2D",
"}  c #CCBA38",
"|  c #D7C934",
" . c #E4D52E",
".. c #E4D43C",
"X. c #E6D736",
"o. c #948E55",
"O. c #B5A543",
"+. c #B9A644",
"@. c #BBA945",
"#. c #BDAC4B",
"$. c #BFAF50",
"%. c #BEAF5A",
"&. c #B5AA50",
"*. c #86876B",
"=. c #90886C",
"-. c #878473",
";. c #958C78",
":. c #999778",
">. c #909569",
",. c #A19C72",
"<. c #94A977",
"1. c #B3AA6C",
"2. c #A8964C",
"3. c #C1AE4C",
"4. c #C2B14D",
"5. c #C9BB47",
"6. c #C5B352",
"7. c #C9B654",
"8. c #C7B853",
"9. c #CAB955",
"0. c #CDBB5A",
"q. c #C4B45A",
"w. c #D1BD5B",
"e. c #D0BA55",
"r. c #C1AE50",
"t. c #C8BA69",
"y. c #CABB78",
"u. c #D3BF66",
"i. c #D5C74B",
"p. c #CEC359",
"a. c #D2C15F",
"s. c #D9CA58",
"d. c #D5CB51",
"f. c #E5D646",
"g. c #E4D655",
"h. c #E5CF5F",
"j. c #F0E145",
"k. c #CCC468",
"l. c #D4C463",
"z. c #D7C967",
"x. c #D4C877",
"c. c #D4CB72",
"v. c #E7D766",
"b. c #E5D17A",
"n. c #2A7F86",
"m. c #7F6F85",
"M. c #85788B",
"N. c #8B7F97",
"B. c #368685",
"V. c #2B878A",
"C. c #33A5B2",
"Z. c #50958F",
"A. c #70928A",
"S. c #73AD9A",
"D. c #48ABA6",
"F. c #53B0B3",
"G. c #6CB1AD",
"H. c #55A593",
"J. c #78C5B4",
"K. c #3DB9CD",
"L. c #4AB7CA",
"P. c #72C3C8",
"I. c #888587",
"U. c #969588",
"Y. c #8B8596",
"T. c #9A9598",
"R. c #8E9190",
"E. c #A59992",
"W. c #91A594",
"Q. c #A7A595",
"!. c #B3AA98",
"~. c #AEB18F",
"^. c #9D98A5",
"/. c #968FA7",
"(. c #A699A7",
"). c #AB9EAF",
"_. c #8DB4AD",
"`. c #A8A7AA",
"'. c #B4ACA4",
"]. c #B6BAA6",
"[. c #B8B5B6",
"{. c #ACAAB7",
"}. c #CEBF81",
"|. c #AFC8AE",
" X c #A1C6A5",
".X c #D5CA86",
"XX c #DCD287",
"oX c #D8CD99",
"OX c #DCD29C",
"+X c #DCD698",
"@X c #CACB95",
"#X c #E3DA88",
"$X c #E3D999",
"%X c #E7CE94",
"&X c #EAE296",
"*X c #F7E492",
"=X c #C9C6A6",
"-X c #D8CDA7",
";X c #DAD5A8",
":X c #C9C6B6",
">X c #D4CDBB",
",X c #D5D5B8",
"<X c #CCD6AB",
"1X c #E4D8A6",
"2X c #E3DCB6",
"3X c #F2D5A9",
"4X c #DAE2AD",
"5X c #EAE5AD",
"6X c #EDE7BA",
"7X c #F7F3BA",
"8X c #F5EDB2",
"9X c #BBB6C2",
"0X c #B0ABC2",
"qX c #CCBCCC",
"wX c #8ED3D1",
"eX c #B1D2C8",
"rX c #B3E5D4",
"tX c #B7EFE7",
"yX c #C8C8C8",
"uX c #D5CCC4",
"iX c #DAD6C6",
"pX c #CCC6D2",
"aX c #D7D6D7",
"sX c #CED4D1",
"dX c #E4DBC5",
"fX c #E5DCD7",
"gX c #C9E8D9",
"hX c #D4EAD0",
"jX c #E9E7C7",
"kX c #F2EEC6",
"lX c #F9F6CA",
"zX c #E9E6D8",
"xX c #F1EDD8",
"cX c #EBF3DC",
"vX c #FAF7D6",
"bX c #E9F2C7",
"nX c #DBD6E2",
"mX c #E3DDE8",
"MX c #D5E9E5",
"NX c #E8E7E8",
"BX c #F8F6E9",
"VX c #F2F0EE",
/* pixels */
"3.+.3.e.w.w.w.w.w.+.) ` 3.+.+.3.3.3.3.3.8.$.@.@.@.#.$.8.$.$.$.5.6.q.8.8.8.8.8.8.#.@.O.#.a.0.7.4.4.4.",
"3.O.3.w.w.w.w.w.w.+.) ` #.3.3.#.3.r.3.3.$.$.#.@.@.$.$.8.#.#.&.#.8.8.8.8.8.8.8.8.#.O.@.#.7.4.4.4.8.7.",
"3.+.3.w.w.w.w.w.e.+.) ` +.3.+.3.3.3.3.3.5.$.&.@.] #.5.8.$.$.$.5.6.6.6.8.8.8.8.8.#.@.O.$.4.4.4.4.4.8.",
"3.O.3.w.w.w.w.w.e.3.) ` 3.r.3.3.3.3.3.3.$.$.#.@.#.#.8.$.p.%.p.8.9.8.8.8.8.8.8.8.#.O.O.#.+.@.4.8.7.7.",
"7.e.7.e.0.w.w.w.0.4.3.O.$.8.XX#X$X$X$X$X+X.Xk.%.@.#.$.$.z.k.9.q.9.6.#.#.#.$.$.4.#.#.O.#.] ] #.7.7.7.",
"e.7.7.e.q.e.u.e.7.4.+.t.+XvXlX7X5X5X5X5X4X8XbXlXbX.X#.$.p.p.0.0.p.9.8.6.4.4.6.6.#.@.@.@.+.@.4.7.7.7.",
"r.r.6.6.6.7.7.7.8.#.+XvXlX8X8X&Xc.t.c.c.c.c.+X7X7XvX+X#.9.t.0.l.z.l.p.9.9.0.9.9.#.@.@.@.#.4.4.9.7.9.",
"3.3.3.r.3.3.3.3.x.kXlX7X&XXXc.z.i.i.i.i.d.p.z.b.&X8XlXk.8.0.0.l.z.z.l.l.l.p.a.a.5.@.@.@.#.4.4.7.e.7.",
"3.3.3.3.6.6.r.kXlX8X*X.Xk.l.i.| j.j.f.f.g.g.i.e.z.XX7XlXXXp.k.0.c.z.z.0.0.0.0.9.3.3.3.3.3.4.7.4.7.7.",
"7.7.7.e.7.e.6XlX8X#Xu.e.i.d.f.X. . .X.X.X...f.g.i.z.&X7XlXk.0.0.z.l.l.l.0.9.0.0.3.3.3.3.3.3.4.e.4.7.",
"w.e.e.e.w.kXvX5XXXz.z.g.f.f.X.X. . .X.X.X.X.f.f.g.d.k.+XlX$Xq.8.9.0.u.l.9.0.7.7.4.7.7.7.3.3.3.4.4.4.",
"w.w.e.e.2XvX6X.Xx.a.h.f.j.X.X.X. .j.X.X.X.f...f.d.v.p.XXkXbX$.q.6.q.0.l.0.9.0.9.e.7.7.4.3.3.3.6.3.3.",
"w.w.7.7.BXdX=X.Xc.s.g...X. .X.....f.f.j...| | | g.s.l.XX7X6X4.6.7.6.r.$.3.4.4.4.3.6.7.7.6.3.4.4.3.3.",
"q.7.3.3.kX2X@Xx.c.z.g... .| | d.v.' ) 5.i.} } h.g.i.p.#X7X6X$.$.q.6.$.#.3.4.4.3.4.7.7.4.7.4.4.6.4.4.",
"e.6.r.3.6XvX;X.Xk.q.5.[ | | i.v.r.8 4 Y 4.h.h.v.d.z.8.XX7Xt.$.6.7.r.3.3.3.3.4.4.6.6.7.r.4.7.4.4.4.4.",
"r.r.3.` OXBXkX1Xx.9 { [ 9 [ z.&.8 T T 2.b.*Xb.e.w.v.t.&X7X.Xt.6.7.6.3.3.3.3.3.3.r.6.7.7.7.7.4.4.4.4.",
"] ] ` ] O.}.kXvX@X7 7 9 8 _ XXo.  8 R t R b.*Xb.u.u.u.1.R ,.:Xu.w.q.7.r.3.3.r.r.7.0.9.7.2XkXxXxX2Xw.",
"] ] ] ] ` ] #.2X-Xr   7 1.x.,.C e o + + C y.%X%Xt.b.u.o.7 1 ;.2Xw.0.q.6.3.r.r.#.r.r.7.dXMXT.T.`.uXNX",
"@.3.+.+.+.+.] t.>XZ   e =X;X=.S ~.; X q ~.3X$Xx.2..Xy.1.R m U.1Xq.7.6.3.t.oXq.r.#.#.1XmX`.c j , M.aX",
"@.3.3.3.] ] ` t.zXU.- n >XiX!.Q.-Xq   R ,XjXoX1.t q.XXo.R ,.uX-X7.6.3.;XfXVXzXq.#.xXNX^.U I.R.= J yX",
"3.#.#.#.O.O.O.-XfXR.2 ;.>XiX-X2X-Xo.r 1.-X2X@X<.+ 2.$XC w !.cXy.6.$.t.pX^.^.sXBXdXNX^.U Y.sXVXj L uX",
"#.#.$.#.O.O.%.iXE.2 2 !.=X;X1XOX3X%X3X1XOX$X+Xo.+ <.<X~ M <.sX6Xq.&.,XM.$ : Y.NXnX{.m.Y.NXNX{.J I.sX",
"$.#.#.#.%.@XfX'.2 o o e Q.=X1X3X%X%X3X.X@X4X+X~ 6 <.|. X^ f A.gXtXjXNXM.> = p /.0XD /.mXVX9X: {.iXNX",
"$.#.#.y.fXW j k z z + O M |.jX2X2X2X6XjXbX|.~ f S.J.J.J.Z.g h 6 m.MXVXm.: : # @ F /.nXmX{.v Y.gX2Xt.",
"$.$.%.iX( c j c P P < O 6 l M M M z w w l N H G.wXJ.F.F.F.D.H.h d U eXN.> : % x /.nXmX).U /.fX,X$.#.",
"$.$.,XI.z c Z Z L B w V ^ 5 < * < B ( V N N G.wXF.K.K.K.K.F.J.! Z.H M.x $ % u N.nXnX{.Y.`.nXzX6.#.#.",
"3..X[.5 Z L Z Z l < B  X XA.^ d d W.{.{.{.wXwXP.K.K.K.K.K.D.D.J.rXW.F % # & u M.0X).F U qXVXr.3.#.3.",
"q.<XR.  P L Z Z 0 O L gX|.eX_.A.m.S.S.eXgXtXwXL.L.K.K.K.D.D.J.wXgXyX/.x & $ % s m.F > v /.nXxX@.@.@.",
"jX[.Z 5 Z Z C B 2 2 ( sXeXW.H D G m.g m._.wXwXP.L.F.F.C.! F.rXrX[.9XsX(.x $ @ > u u % $ i I.VX@X] 3.",
"yXJ O / S Z w 1 q E.[.Q.I.d . . * G G.! g Z.G.P.Z.F.n.h ! H.S.A.M.(.qX(.W F s u $ # % % @ : 9X2X5.4.",
"yXB ; *.A Z 1 q '.dXuXZ , j d . * Z.wXwXH.g g g g G * ( S.v = = # $ Q F s (.qXU @ : $ @ : v pXXX4.3.",
"yXB = P b + m !.>X>XM.- n U i . * Z._.P.G.D.H.H.A.H < , K T.x # & & a & & a x M.).9X{.0X[.{.zX3.3.5.",
":XB < W n 2 k m m m 3 m m m D H * g B.V.V.B.! ! V ( / 5 m (.M.# s > & D Y.T.T.qXfX1XOXOX-XdXt.3.4.3.",
"aXW.l n K m 3 3 3 - a E m & l U 6 ! B.n.V.B.! f N S =.e m ).0Xs p & x ).mXiXdX;Xr.3.3.] +.+.3.3.4.4.",
"4XaXI.0 K A m a q q R m b 0 , d ^ J.G.G.G.G.S.S.( S E b A E.pX/.i i (.NXoX+.3.4.3.3.#.3.6.4.3.3.4.4.",
"0.2XaXI z n E K A E E 3 w / B l  XtXeXtXtXrXrXgX|.].=X~.;.W (.sX`.(.mX.X+.+.3.3.3.+.+.3.a.7.4.3.4.6.",
"0.9.x.NX-.j k K W -.e M :.*./ ~.hXhXhXhXgXgXhXMXcXhXvXxX=X-.z Q.VXcXk.$.4.8.4.4.3.+.] 3.6.7.7.4.6.4.",
"8.9.8.c.zXY.k 0 q 0 w *./ M o.<X4X4X~.~.,XcXcXaX|.:.].,X<X~.e y cXcX4.#.6.4.4.3.3.+.+.4.6.4.6.6.6.6.",
"0.8.8.$.t.aXI.2 - ; U.*.M ~.<X4X;X1.e =.,XvXvXxXiXn *.|.jX@XS y 4XBXx.$.8.6.4.6.3.+.] 4.7.4.4.4.6.6.",
"q.8.$.#.4.t.fX[.'.Q.P y :.=X<X@X,.r R =XxX2Xx.oXNX:XZ E ].=X<.y S zX,X8.6.4.4.6.3.@.3.3.4.4.6.6.6.3.",
"#.#.#.#.] O.1XBXfXE.3 r E =.=.E z *.:XzXjX3.9.w.oXBXz k E ;.E e - :XjX7.4.4.@.O.3.+.@.3.3.3.3.3.3.3.",
"O._ _ _ O.O.-XfXE.3 + b r q 3 e Z jXBXOXq.6.7.0.w.zXn - 0 z w 1 ; R.zX.X8.4.+.` 3.3.#.3.3.3.4.3.#.3.",
") ) ) ) ] O.OX[.q o q 0 q 3 1 C iXBX;X5.3.6.9.w.w.dXP 2 - 1 k e ; ; [.1X6.3.] [ 3.3.3.3.#.3.#.3.+.3.",
"_ _ _ _ O.O.1X`.- X - X o + S dXBX+X$.$.4.7.9.w.6.%XuXW ;   X     o `.;X6.@.] ] +.3.@.@.@.@.@.3.3.3.",
"O.O.O.O.O.O.;XmX'.I.T.U.E.!.iXxXt.@.$.$.7.7.9.w.7.r.BXuX'.E.Q.Q.U.T.aXk.7.3.] +.+.+.+.O.] @.3.3.q.7.",
"O.O.O.O._ _ %.zXjXiX6XOX+XOX;Xq.#.#.$.8.7.7.7.4.3.+.oXVXVXxXzX2X;XOXx.e.7.7.4.@.O.+.+.+.] @.3.7.7.q.",
"&.@.&.&.O.O.#.#.#.#.6.8.8.$.6.$.$.4.7.9.0.7.3.@.+.+.+.` 4.4.4.4.7.7.6.6.8.4.3.@.+.@.@.@.@.3.3.7.7.7.",
"#.$.$.#.#.$.q.9.#.#.6.8.6.6.6.4.4.6.0.w.9.8.@.` ` +.#.] 4.4.7.7.7.7.6.4.4.3.3.3.@.@.@.@.3.4.7.9.3.6.",
"$.$.$.$.8.8.q.8.9.q.q.6.8.6.6.8.9.0.9.0.7.7.` ] ] +.3.] 4.4.4.a.u.w.7.3.3.4.7.e.4.3.@.4.9.7.6.3.r.3.",
"#.$.$.$.q.8.q.8.9.8.8.6.8.6.4.8.9.9.0.0.7.7.] ] ] +.] 3.4.4.7.w.z.a.e.4.3.4.7.7.4.@.@.4.9.9.6.r.r.r."
};
