/* XPM */
static char *_d4afb05c6b14d9b81c85fea30d792eeTjzurvCLkPbShaN0[] = {
/* columns rows colors chars-per-pixel */
"50 50 235 2 ",
"   c #1F0B00",
".  c #1B1B17",
"X  c #191104",
"o  c #240E01",
"O  c #290F00",
"+  c #251202",
"@  c #2B1501",
"#  c #2D1A04",
"$  c #2C1D0B",
"%  c #251A0C",
"&  c #331B02",
"*  c #3B1D01",
"=  c #311C0B",
"-  c #331704",
";  c #251C13",
":  c #2C1D13",
">  c #2C1D18",
",  c #311E12",
"<  c #3C2203",
"1  c #34240D",
"2  c #392409",
"3  c #2B2115",
"4  c #26221C",
"5  c #2D251C",
"6  c #282518",
"7  c #332313",
"8  c #32251C",
"9  c #392919",
"0  c #2D210B",
"q  c #2E2A25",
"w  c #2C2A27",
"e  c #332C24",
"r  c #3B2D24",
"t  c #322D2A",
"y  c #3E2F28",
"u  c #2F3129",
"i  c #3B3026",
"p  c #34322C",
"a  c #3B322B",
"s  c #3A372A",
"d  c #362F31",
"f  c #343533",
"g  c #3A3631",
"h  c #3C3A34",
"j  c #3D3A3A",
"k  c #431F01",
"l  c #422402",
"z  c #4C2601",
"x  c #4D2A02",
"c  c #4E2709",
"v  c #452B0E",
"b  c #4E2C0A",
"n  c #452806",
"m  c #522701",
"M  c #542B02",
"N  c #592E02",
"B  c #522D0A",
"V  c #5A2907",
"C  c #4F320C",
"Z  c #563103",
"A  c #5B3204",
"S  c #55330B",
"D  c #5C340A",
"F  c #573C0C",
"G  c #5B3B0D",
"H  c #583B06",
"J  c #432B16",
"K  c #562E17",
"L  c #4F3613",
"P  c #5A3613",
"I  c #5D3A13",
"U  c #54391B",
"Y  c #5D3B1A",
"T  c #563617",
"R  c #622E01",
"E  c #623303",
"W  c #61360B",
"Q  c #643A0D",
"!  c #693C0D",
"~  c #683906",
"^  c #643D14",
"/  c #6A3C14",
"(  c #613B1A",
")  c #6A3E1D",
"_  c #653614",
"`  c #733D13",
"'  c #753D15",
"]  c #733703",
"[  c #42342D",
"{  c #46382A",
"}  c #573B23",
"|  c #423C35",
" . c #423E39",
".. c #463C33",
"X. c #673E22",
"o. c #5B421A",
"O. c #65420E",
"+. c #6D430D",
"@. c #69470B",
"#. c #75460F",
"$. c #664314",
"%. c #6C4215",
"&. c #63431B",
"*. c #6C441A",
"=. c #6B4918",
"-. c #724313",
";. c #72431B",
":. c #75491C",
">. c #714E16",
",. c #494135",
"<. c #45423B",
"1. c #4B453D",
"2. c #484539",
"3. c #52453B",
"4. c #52493C",
"5. c #5A4638",
"6. c #584932",
"7. c #674725",
"8. c #764823",
"9. c #644B35",
"0. c #67513C",
"q. c #74572F",
"w. c #736435",
"e. c #464442",
"r. c #4A4641",
"t. c #4D4A44",
"y. c #4D4C4A",
"u. c #4D4449",
"i. c #534C44",
"p. c #594D44",
"a. c #534E4B",
"s. c #544A46",
"d. c #4E524A",
"f. c #545345",
"g. c #5B5345",
"h. c #54524C",
"j. c #5A544B",
"k. c #5D5B4E",
"l. c #524E50",
"z. c #5A5652",
"x. c #5C5A54",
"c. c #5E5E5A",
"v. c #555652",
"b. c #4F5450",
"n. c #60554D",
"m. c #625B4B",
"M. c #685A49",
"N. c #635D54",
"B. c #635D5A",
"V. c #695D54",
"C. c #775E4C",
"Z. c #5E615A",
"A. c #5F604E",
"S. c #6B644D",
"D. c #66624A",
"F. c #656154",
"G. c #696057",
"H. c #64625C",
"J. c #6B645C",
"K. c #6A695C",
"L. c #746B5B",
"P. c #746955",
"I. c #787255",
"U. c #7C634D",
"Y. c #5A5E67",
"T. c #675C6F",
"R. c #656361",
"E. c #696865",
"W. c #766C67",
"Q. c #7B7367",
"!. c #7E7773",
"~. c #65627D",
"^. c #877C48",
"/. c #837C5B",
"(. c #817867",
"). c #837E78",
"_. c #937D68",
"`. c #AC9B37",
"'. c #AF9F3D",
"]. c #B19D3B",
"[. c #B3A23E",
"{. c #8D834E",
"}. c #958956",
"|. c #968A57",
" X c #9B904E",
".X c #A6984D",
"XX c #A2964A",
"oX c #A79B58",
"OX c #B6A544",
"+X c #B9A644",
"@X c #BBA945",
"#X c #BDAC4B",
"$X c #B4A547",
"%X c #BEAE52",
"&X c #B7AA5D",
"*X c #B7A953",
"=X c #8B8567",
"-X c #958D66",
";X c #8C8579",
":X c #948C79",
">X c #9D9566",
",X c #A39965",
"<X c #ACA36C",
"1X c #B8AC67",
"2X c #BEB469",
"3X c #B6AB78",
"4X c #B3AA75",
"5X c #C1AE4C",
"6X c #C3B14D",
"7X c #C5B351",
"8X c #CAB654",
"9X c #C9B653",
"0X c #C7B853",
"qX c #C7B851",
"wX c #C9B954",
"eX c #CAB955",
"rX c #CFBB5A",
"tX c #CCBA5A",
"yX c #C5B55B",
"uX c #D0BC5B",
"iX c #D1BD5B",
"pX c #C1AE50",
"aX c #C1B264",
"sX c #CABA63",
"dX c #C9BB74",
"fX c #D3C15F",
"gX c #CAC079",
"hX c #676782",
"jX c #948D83",
"kX c #9B968A",
"lX c #A79D94",
"zX c #A9A487",
"xX c #CBBD80",
"cX c #CDC9C1",
"vX c #DBD8D3",
/* pixels */
"5X+X5XrXrXuXuXuXuX@X`.].@X5X#X#X5X5X5X5X%X6X#X@X@X#X%XfX#X%X%XqX7X0X0X0X0X0X0X0X#XOXOX#XfXiXqX6X6X6X",
"5XOX5XuXuXuXuXuXuX@X`.].@X@X#X5X5X5X5X5XqX6X#X@X@X#XqX%X@X@X@X#XqXqX0X0X0X0X0X0X%XOXOX#X8X9X6X6X7XqX",
"5X+X5XuXuXuXuXuXrX+X`.].5X#X5X#X5X5X5X5X7X%X#X@X@X#X%XqXqX#XqX%X%X0X0XqX0X0X0X0X#XOX@X%X6X5X6X7X9X6X",
"5X+X5XrXuXuXuXuXrX5X`.[.@XpX5X5X5X5X5XyX>XW.E.!.:X>X|.|.>X>X>X2XtXwX0XqX0X0X0X0X#XOXOX#X[.@X5XqX9X9X",
"8XrX8XrXuXuXuXiXrX6X5X+X5X6X6X6X7X9X(.d.r.<.r.d.h h e.j u 2.b.Z.}.&X6X#X#X6X%X6X#X#X[.qX[.[.6XqXqX8X",
"8X8X8X8X8XuXuXuXwX#X+XOX@X6X6X2X-XV.2.j y.y.2.p. .r.p.p.2.,.e <.e.5 oXaX<XaX6X6X#X@X[.6X@X[.6XqX8X8X",
"6X6X7X7X9X8X9X7X6X#X@X'.[.@Xw.b.z.N.x.g r.j.f.l.g e.t.t.h.d.u s q 4 z.h.A.k.}.gX6X#X#X[.6X6X6XeX8X8X",
"5X5X5X5X5X5X5X5X#X#XOXOX&X4.p g B.E.a.3 p s | g p g g r.e.p u h s h H.k.Z.H.z.Q.6X[.[.6X6X6X6XqX8X8X",
"6X5X5X5X7X7X5X@X@X#X1Xa.j.x.J.1.t u.r.3 $ $ 8 = @ $ # @ = 7 7 8 9 r.K.x.c.y.R.x.oX%X@X5X#X5X9X8X8X8X",
"8X8X9X8X8X7X@X@X@X1Xq a.x.x.j.H.g r 8 1 # @ @ @ & & & & @ + @ $ 1 [ 1.V.a.c.H.r.t { aX5X#X5X7XqX9X6X",
"rXrXrXrX8X7X5X@X@XP.> i.E.j.v.R.<.$ $ + O * l M A N A x D S k - o % 7 i ..i.t.h p q =XqX#X5X5X7X6X5X",
"rXrXrXrX8X6X@X#X Xp f u v.R.B.x.e + - * B M x Z Z M M x N A N E x # + # 7 r s  .e.,.4.sX5X@X5X9X5X5X",
"uXrX8X8X5X5X$XoX4  .2.w p <.| e + & b Z x z N N Z x M M N D N N N x & o + 2 5 r.i.h.h g xX7X5X6X6X5X",
"rX8X6X5X+XOXOX,Xu h 5 t i.8 : o < C M Z Z M z Z A N M x M D N A M N z * + # = h.e.r.j u I.qX6X6X6X6X",
"8X6X5X+X].[.$XJ.J.x.,.5 r , O * B A N M x x x N Z M M x N W A Z A M M H * + & 8 i.h.1.u M.6X5X7X6X6X",
"9X5X5X].].].XXa.v.h.Z.i + o @ m D N N A x x M N Z Z M m M D N M A x c W M & + $ 9 { e w M.8X6X5X6X6X",
"[.[.[.[.[.[.XXH.H.z.1.r 7 @ l z D N m N B M x N M Z M x M W N N B b x A A x + - & 8 ,.N.x.1X8XtX8X8X",
"[.[.[.[.[.[. X1.B.f.<.r o * S x D M N M x M M N Z Z M x M W N N z B Z A B M z + # 9 N.G.x.:XiXtX8X8X",
"5X[.[.+X+XoX1.5 a t 5 : @ b M z D N N Z x N m N Z A M M M W N B N M M S A M N @ # i V.R.b.y.dXtXrXwX",
"5X6X#X#X,Xy.R.a 4.g $ @ * Z c m D N M Z M M N N M A x M m E N M M N m N N N A z + v B.d.h f eXtXrX8X",
"5X#X#X#XP.Z.h.p 1.f $ @ B M m x D A M A x M M N N D x M z W N M M Z x M N N N B + 0 a.j. .b.g.sXrXrX",
"#X#X#X#XI.h.h t <.p # # S M m m D A N B b x M N M M B x M D Z M M M z S M Z M x * # j.x.t v.p.dXwXwX",
"#X#X#X6X:Xs q w e ;   < M M N x A A M M x M M M M M x M z A N x M x z M M M M N * O > | j u {.7XqX6X",
"%X7X#X4Xs.<.e f. .% # T Q Q D W ! ~ W Q W W W Q Q W W W W ! / Q _ Q W Q Q Q W G l @ 7 1.s.4 /.6X6X6X",
"1X=X<XjXj <.1.J.j.X J U S B b B D N N N N A N A E D A A N A E D D D N E D D A D D + 0 [ h 4.=X5X6X#X",
"E.;XvX!.j e j.F.h.% i 2 l 9 J v x x N N M N M M M M M M M M M m M N m M m M M z N = @ 8 d.B.D.oX,X,X",
"G.cXcXjX| e h.F.l.6 e 7 # 8 5 * v z N x z M m z M z M M x x x z z M x M M B M V M @ 0 8 d.K.y.jX:XG.",
"4.m.:Xi.5 ; h x.i., y 2 B 2 B R Q / ~ ~ @.! ' -.+.+.+.%.+.%.%./ ` O.W ] ~ W M N D & $ i.h <.j :XlXW.",
"%XI.Q.n.3 6 3 w h . 9 S z K q.w.>.#.8.8.8.:.8.:.:.:.:.:.:.:.:.#.O.8.;.V.V.-.B z * + : p.n.5 i Q.V.| ",
"7XdXV.G.i ; q t.t.. < A M _ C.hX9._ -.*.O.@.$.*.%.%./ %./ *.*.8.@.%.+.Y.hX:.P < & & + 4.j.r g.I.K.zX",
"yX2XS.Q.4.i 3 y.B.; < A N D 9.B.7.+.*.X.*.%.$.*./ %.%.*.*.%.*.` ` *.*.7.6./ ^ x v o { G.j.r.x. X5X6X",
"7X-Xa.4...J.i u R.& * S N Q 7.%.+.+.` ' ;.;.' *.*.*.*.*.*.*.*.) 8.&.*.#.+.) 8.C.U.M.n.k.B.1.r.{.5X6X",
"tX4XG.J.p.1.W.e q & * P M I %.' &.o.&.^ $.Y ) ^ ^ $.^ $.^ ^ $.&.^ G / ) 7.) q.W.P.N.j.n.3.M.M.|.6X5X",
"tXsXJ.;X4.i.p...  $ 2 Z N M ^ I P U } U P L U I P P I S G I I H F } W P U N 3.z.j...j.V.Q.(.M.aX6X6X",
"tXtX1XV.W.p.N.Q.G.g 2 A M V } Y D ! ( S ~ Q U Y Y ( ^ Y ^ Y Y / X.} _ G I ^ M.s.a.s.s.n.V.!.W.oX5X6X",
"tXtXtXyXS.j.s.j.P._.7.b D B / G ^ I I F $.^ _ Y I Y Y I I Y Y ^ G ( _ D K _ 6.e.p.l.5.p.g.p. ..X9X5X",
"tXyXqXqXXXf.4.s.a.z.W.L.U.C S L D _ X.T Z S U S P P P P P F P P G Y S H F S &.4.6.s 7 r s i x.oX9X7X",
"tXwXfXqXoX4.1.f.r.y.j.n.P.n.0.~.9.~ / ) *.%.*.*.$.*.*.*.*.*.*.$.8./ 7.W.E.$._ L l % # p.y.e a.^.6X7X",
"wXwX0X%X.Xh ,.g.,.(.m.6.0.9.0.~.9.@.-.;.*.-.+.*.*.*.;.%.%.%.*.@.8.' / T.T.=./ z M # # {  .5 4 }.7X7X",
"wX0X%X#XoX6 a { { N.!.j.} S +.q.*.;.8.*.) ;.=.;.;.%.-.=.%.*.;.-.*.*./ &.7.-.=.Q M O = d h a <.}.7X6X",
"#X#X#X#X|.t.q <.a.g N.j.{ K Y >.-./ $.$.-.;.$.%.%.;.%.;.%.;.*.*.@.:.;.$.8.;.&.W W = # r.E.1.a {.5X5X",
"'.'.'.'.{.N.s.R.x.1.i 5.9.8 q J B A Z Z R E E Z A A A A D A D Z M E E K K A V M m o # N.E.p.p ^.5X@X",
"`.`.`.`.{.x.j.n.N.| e i r = 7 7 z V B M Z M B N N N M M M M M V x M N Z S N V M Z @ 2 J.c.B.p /.#X5X",
"'.'.].'.^. .q B.x.s 9 2 c v v N M N M N B N N A M N N V N m A Z N N V N M N N N S - % g.v.E.f }.#X#X",
"$X'.$X'.|.j.1.j e.u ; v B < 2 n C x l < * < < B n x l < * l b z n l * l n n l l k @ $ 8 p | e {.yXyX",
"$XOX@X$XI.x.K.z.e.d > l D M x N A A Z x x z z M A N M x z z Z Z B z x M M M x S n @ = [ p.f.g.S.pXyX",
"#X@X$X#XD.k.k.f.Z.d.: z R V M N A A N M B z M A A N M x M x D Z N V M M N A N N B O $ n.R.R.E.N.lXyX",
"%X#X%X%XI.G.Z.A.x. .; 2 Z c l z M N m B z z m m M M z x z z x x x m k k M M z n k @ 5 G.R.Z.c.g <XpX",
"#X%X%X%X&XD.f.a.r.e.R.L.S.m.F.G.F.F.F.H.c.z.j.x.m.F.Z.N.x.x.F.k.j.z.x.N.F.A.N.m.N.K.N.x.j.f.^.oX%XpX",
"%X#X%X#X0XaX2X3X4XN.l.x.x.Z.K.E.G.J.R.x.v.x.x.x.h.v.z.v.Z.J.H.H.H.B.Z.x.h.z.c.c.b.j.p.z.;X3XaX5XpX5X"
};
