/* XPM */
static char *_d5f6b4802684d86d7c5bb80e86b5c40h2dMiCKte3bDChJk[] = {
/* columns rows colors chars-per-pixel */
"50 50 135 2 ",
"   c #76221F",
".  c #7B241E",
"X  c #470C27",
"o  c #4A0E26",
"O  c #4E1026",
"+  c #551325",
"@  c #5C1624",
"#  c #5E1A26",
"$  c #551628",
"%  c #591728",
"&  c #5B1928",
"*  c #601723",
"=  c #641B24",
"-  c #6B1E22",
";  c #611D28",
":  c #701F20",
">  c #6C2125",
",  c #672028",
"<  c #6D2428",
"1  c #732222",
"2  c #7A2621",
"3  c #762826",
"4  c #7D2923",
"5  c #712628",
"6  c #742828",
"7  c #7F2F28",
"8  c #81271E",
"9  c #85291D",
"0  c #8D2D1C",
"q  c #912E1B",
"w  c #95311B",
"e  c #9D361C",
"r  c #9F371C",
"t  c #9E371D",
"y  c #9C3419",
"u  c #9F381C",
"i  c #9D381F",
"p  c #9D381E",
"a  c #A0371B",
"s  c #A0371B",
"d  c #A1381B",
"f  c #A2391C",
"g  c #A23A1C",
"h  c #A33A1C",
"j  c #A23A1D",
"k  c #A13A1E",
"l  c #A23B1E",
"z  c #A43A1C",
"x  c #A43B1C",
"c  c #A53C1D",
"v  c #A73D1D",
"b  c #A43B1C",
"n  c #A83F1E",
"m  c #A93F1E",
"M  c #A83F1E",
"N  c #802A21",
"B  c #822B21",
"V  c #822B22",
"C  c #852C20",
"Z  c #802B24",
"A  c #832E24",
"S  c #872F24",
"D  c #822B22",
"F  c #802F28",
"G  c #873024",
"H  c #863127",
"J  c #863227",
"K  c #863127",
"L  c #8A3023",
"P  c #8E3423",
"I  c #8B3426",
"U  c #8A3427",
"Y  c #8B3527",
"T  c #8E3526",
"R  c #8D3627",
"E  c #8E3727",
"W  c #8F3727",
"Q  c #8B3526",
"!  c #813029",
"~  c #833028",
"^  c #833128",
"/  c #843229",
"(  c #863328",
")  c #873328",
"_  c #853228",
"`  c #893428",
"'  c #893528",
"]  c #883429",
"[  c #8A3528",
"{  c #8B3628",
"}  c #8A3529",
"|  c #8E3829",
" . c #8F3829",
".. c #8F3929",
"X. c #8E392A",
"o. c #953520",
"O. c #963620",
"+. c #963621",
"@. c #913625",
"#. c #903727",
"$. c #913624",
"%. c #903827",
"&. c #913827",
"*. c #913827",
"=. c #9B3A22",
"-. c #9B3A23",
";. c #9E3D23",
":. c #9F3D23",
">. c #9D3D25",
",. c #9C3C23",
"<. c #903929",
"1. c #923A28",
"2. c #913B2A",
"3. c #943B29",
"4. c #A03E23",
"5. c #A33F22",
"6. c #A53E20",
"7. c #A23E22",
"8. c #AC421F",
"9. c #AB411F",
"0. c #A54123",
"q. c #A64123",
"w. c #A64223",
"e. c #A24024",
"r. c #A34124",
"t. c #A54123",
"y. c #A84424",
"u. c #AB4421",
"i. c #AD4826",
"p. c #AE4926",
"a. c #AF4926",
"s. c #AD4826",
"d. c #B14621",
"f. c #B24A25",
"g. c #B24C28",
/* pixels */
"| | / 6 ] + < <.] = * * @ o 5 { ] 1 1 1 : S 3 o $ ] { #.{ #.} ; o $ } #.{ <.#.<.<.) + X = F 3 #.3 @ ",
"x x w w j 4 e.x f q y q 9 H f f x x y s y y w : F m z z x x x -.= A m j x x x u.m f - 5 w s w x e 0 ",
"y y y y y V 5.y y y y e q #.x y y y y y y y y 0 Z s y y y y y f 9 P g y y y y y y y . V s y y y y y ",
"y y y q q 1 +.y 0 2 0 w 0 Z e y y s y y y y y 9 = y y y y y y q . 1 y y y y q q 0 q   - q q q y y y ",
"D D 2 > - & 5 1 : - = - @ + = : : : : : B B 7 = ; - : 1 N V 1 : # = 7 V 1 - > - - ; & ; - ; - 5 : Z ",
"0.0.0.0.t.t.5.> = 4.5.5.8 . = - - @   8 5.6.5.f.5.: - P 5.f.y.5.0.f.0.;.* < t.f.y.6.q.6.t.t.g.L = -.",
"y y y y y y y 2 . s y y y y N =.q = y y y y y s e q ] f y s e e y s y y 0 *.z y f y y y y y s q 4 y ",
"y y y y y y y 1 9 y y y y y y y q - y y y y y y e q : y y y y e y y y y q T z y y y y y y y y q : y ",
"q q q 0 0 9 . + . 0 q q q q 0 9 . @ 0 q q q w 9 0 1 * 0 q 0 q 0 q q q 0 - = 8 0 q q q q q q w . > +.",
"4 < # I %.T H 1   . - @ # ] { I I ( T *.I - = * @ @ 7 @.@.#.*.<.#.1 + 3 ) / ) 7 = - * @ + @ = * 3 <.",
"i w { 9.g z g y y y w   < j j j x x g x g w w w 0 1 z z z z x x x e : L j j j y q 9 S @.* 0 w w y x ",
"y q T g y y y y y y y . 4 e y y y y y y y y y j B . y y y y y y y s : : y y y y e ;.6.e - 0 y y y y ",
"q 1 1 w w y y s w 0 q : @ q y y y y y y y y y w H   y y q y y y q w 1 . 0 y y y f x y w - 8 w w y y ",
"= % # > 1 1 1 1 7 ; > ; & V 3 2   : :         + + + > 1 1 = 1 4 - 4 ; ; @ :     : - 2 1 & # > - 4 V ",
"0.y.0.0.;.8 - + T 0.0.w.0.0.0.T , % , . . . . . . . . 8 -.- T y.i.t.g.i.9 . . . 7 & @.t.;.+.t.o.;.6.",
"y y y y y y 0 > t.y y y y y y 0 +.,.3.c y y y y y y y y y D 6.y y y s s y y y y ;.{ x y y y y y y y ",
"y y y y y y 0 = i y y y w w y y u q D u y y y y y y y y y . q y y y y y y y y y $.4 y y y y y y y y ",
"0 0 w 0 q 9 . + . 0 0 2 = 8 w 0 9 = O : 0 w 0 w q 0 9 9 . + - 9 q q 0 q 0 9 . . 2 > . 8 q q q q 8   ",
"- = * 4 I @ < } { *.%.I > + 3 *.*.( 7 = = * * @ # I I %.I 5 @ * @ # } @.I T ^ * @ @ + % { } 7 { 7 @ ",
"w w $.l i 4 e.c 8.x j l w H j 8.8.x x w w w w 9 ^ x x x x u w w 9 ] m j g x g w w w 9 ^ c x c j -.L ",
"y y y y y V 0.y w y y y 0 *.x y y y y y y y y w 1 w y y y y y y q 4 e y y y y y y y q 1 w y y y 5.9.",
"y y y y y . w u 0 9 q y 0 I i y y y y y y y y 9   y y y y y y y 9 = q y y y y q 0 w 9   y w y y y y ",
"V V B B . & * - : @ = . * @ =   2   4 V 8 D 4 = & :     D D 8 4 ; = = : @ : 7 - = > # ; 1 @ - 1 -   ",
"g.g.0.u.a.$.. = 2 . . . . . . $.G < e.0.0.0.0.0.;.> + $.y.0.0.0.t.5.8 : @ < e.6.w.0.0.0.w . . - + . ",
"s y y y g y w 2 0.y y y y y y y w *.x y y y y y y w = w y y y y y y y y 0 ) j y y y y y y y w 9   y ",
"y y y y y y w 2 6.y y y y y y y 0 4 y y y y y y y 0 : w y y y y y y y s 0 1 y y y y y y y y c *.- y ",
"w w 0 0 q 9 . # 4 q q q q 0 8 : - O . q q q 0 9 9 - @ 9 q q q q q q 0 2 = @ 8 q w 0 0 q q 0 8 2 @ 8 ",
"* @ # I *.T ) / I 4 = @ = I %.} ( ^ K - - - - * @ + 7 I %.%.%.I - @ o , ) } { @.%.%.*.) # = ) | 6 H ",
"q 0 ) m j g z z g y w 0 3 j g 9.x x g w w w w w 9 I 9.x g g x g y 0 - +.d.d.8.z g g z g 2 ,.u.u.c l ",
"y q C s y y y y y y y q A y y y y y y y y y y y 9 D u y y y y y y y C t.y y y y y y y y V 5.y y y y ",
"q . : y y y y y 0 0 y 8 @ q 0 8 w y y y y y w 0 - * w y w y y q q 0 > L q y y y y y y 0 - 8 y y y w ",
"- & # 4 V 2   : 1 = 3 ; & > + @     1 8 9 4 1 ; & & 2 . 5 *   > ; = & & 2 9 4   : 1 2 = & ; 2 2 4 1 ",
"g.f.t.y.a.$.. = T 0.0.0.0.$.. . . : 5 e.0.0.0.0.0.w.0.w.5., %.y.y.0.0.0.0.0.4.8 - < e.0.g.g.0.,.e.0.",
"i s y y y y y 4 w.y y y y y y s y   H g y y y y y y y y y 4 w y y y y y y y y y 0 %.g y g y y y y y ",
"y y y y y y w - i y y y y y y y y 9 > w y y y y y y y y y 8 ,.y y y y y y y y y 0 %.x y y y y y 0 w ",
"q 0 q q q 9 . @ . w 5.;.9 q q q 0 . + *   9 q q q 0 : 9 0 @ - 9 w q q q q q 9     , 2   9 0 q 0 - @ ",
"<.*.H 7 ) @ < } T *.3.3.5 + 4 *.$.I ^ * * = = @ @ I %.T %.) I ( & @ ( 3.3.%.I I ) 7 O + I 3.*.@.H 5 ",
"x x ;.6.s 4 e.8.c l c g q G l 9.d z g w w q w 9 ^ 9.f.c g l 9.x 9 I 9.8.8.g g 9.c j - / 8.f.c j x l ",
"y y y y y . i y y y y y q | c y y y y y y y y w @ w y y y y y y w 3 y y y y y y y y 0 I z y y y y y ",
"y y y y y   0 y y y y y 0 / w w y y y y y y w 9 > y y y y y y w 9 @ q y y y y y w q   5 y q y w y y ",
"D 4 1 2 2 # >   1 4 C C 5 ; = = - 1 8 D D V 1 @ + - :   1     * & & 2 1 : -   = = - & # 5 - 2 = - 4 ",
"0.e.( +.3.e.e.5 4 5.0.0.0.0.t.3 # < e.0.a.y.0.$.. - , 2 . . . . o.0.;.8 + @ . . V 5.0.0.0.0.y.C = ;.",
"y y g s g y y 4 3.y y y y g 0.-.L *.g y y y y y y w 7 y y y y y y y y y 0 A j y y y y y y y y w . y ",
"y y y y y y y 2 ;.y y y y y y j w . y y y y y y y 0 D y y y y y y y y y 0 = w y y y y y y y y 0 - 0 ",
"q 0 q 0 0 0 . + = 0 q q q q 8 - * = 0 q q 0 q 8 9 - @ 0 q 0 q 0 0 q q 8 @ O   9 q q q q w q 9 1 + . ",
"4 > # I *.$.I ^ = = = + @ = 3 } ) ( T *.*.%.3.H + + / 3.*.@.*.*.*.3 + 5 ) ) ^ I %.I 4 - + ; H H ( I ",
"i 0 I 9.v v v x y y o.H 5 w y 8.x x z g g g 9.l 9 I 9.f.x z z z 9.y 2 0.z z z g g g y w 5 r.c x x x ",
"y 0 T g z x g s z z c e H s y y y y y y y y i w . @.g y y y y y y y V 5.y y y y y y y y D 0.y y y y ",
"q   1 y w y y y 9 0 w 9 @ w y y y y y y y y w L # ^ u q 9 q y y q w   0 y y y y y y y q 5 5.y y y y ",
"+ X O : :     2 > + = + o : -   1         1 * O X + = @ + @ :   + O O @ - 1         - + o *         "
};
